<svg id="Layer_1" data-name="Layer 1" xmlns="http://www.w3.org/2000/svg" viewBox="0 0 444 349.75"><defs><style>.cls-1{fill:#1d252c;}</style></defs><title>Heart - Vertical Positive</title><path class="cls-1" d="M72,228H85.2v18.2h18.35V228h13.21v49.75H103.55V258.29H85.2v19.46H72Z"/><path class="cls-1" d="M158,275.22a24.69,24.69,0,0,1-2.27,1.15,23.39,23.39,0,0,1-3.25,1.2,39.2,39.2,0,0,1-4.17,1,28.59,28.59,0,0,1-4.93.41q-9.69,0-14.84-4.89t-5.15-13.69a22.15,22.15,0,0,1,1.12-6.9,17.74,17.74,0,0,1,3.4-6,17.17,17.17,0,0,1,5.74-4.29,18.78,18.78,0,0,1,8.09-1.64,18.47,18.47,0,0,1,6.75,1.23,14.84,14.84,0,0,1,5.52,3.73,17.76,17.76,0,0,1,3.7,6.27,26.47,26.47,0,0,1,1.34,8.84V264H135.33a6.22,6.22,0,0,0,.48,1.87,5.06,5.06,0,0,0,1.42,1.83,7.63,7.63,0,0,0,2.69,1.38,14,14,0,0,0,4.14.52,19.6,19.6,0,0,0,5.85-.82,19.19,19.19,0,0,0,4.14-1.72Zm-10.14-18.73a5.17,5.17,0,0,0-.37-1.86,5.45,5.45,0,0,0-1.16-1.79,6.53,6.53,0,0,0-1.94-1.38,6.41,6.41,0,0,0-2.8-.56,6.51,6.51,0,0,0-2.76.56,6.05,6.05,0,0,0-1.94,1.38,5.62,5.62,0,0,0-1.11,1.79,5.19,5.19,0,0,0-.38,1.86Z"/><path class="cls-1" d="M162.85,260.45l20.07-29.69h12.46v28.72h4.7v10.07h-4.7v8.2H183.81v-8.2h-21Zm21-1v-14l-9.54,14Z"/><path class="cls-1" d="M206.71,242.7h12.16l.45,4.4a13.72,13.72,0,0,1,3.69-3.55,9.48,9.48,0,0,1,5.34-1.45,19,19,0,0,1,2.57.15,9.31,9.31,0,0,1,1.9.45l-1.64,10.74a14.89,14.89,0,0,0-3.65-.45q-8.22,0-8.21,9v15.73H206.71Z"/><path class="cls-1" d="M240.21,252.39h-5.15V242.7h5.15v-9.78h12.6v9.78h8.66v9.69h-8.66v12.39q0,4.32,4.1,4.32a5.61,5.61,0,0,0,2.35-.52,14.49,14.49,0,0,0,2.13-1.19l4.92,7.75a18.55,18.55,0,0,1-5.29,2.91,17.46,17.46,0,0,1-6,1.05,18.51,18.51,0,0,1-7.12-1.2,11.22,11.22,0,0,1-4.59-3.32,12.64,12.64,0,0,1-2.43-5.11,28.14,28.14,0,0,1-.7-6.49Z"/><path class="cls-1" d="M293.18,274.82c-.17.2-.44.51-.82.92a7.35,7.35,0,0,1-1.52,1.22,11.06,11.06,0,0,1-2.21,1,8.86,8.86,0,0,1-3,.45,9.78,9.78,0,0,1-4.08-.85,9.64,9.64,0,0,1-3.28-2.38,10.75,10.75,0,0,1-2.16-3.76,14.76,14.76,0,0,1-.77-4.94,12.91,12.91,0,0,1,1.14-5.65,11.78,11.78,0,0,1,2.91-3.88,11.32,11.32,0,0,1,3.83-2.21,12.29,12.29,0,0,1,3.9-.7,10.07,10.07,0,0,1,3.88.6c.93.4,1.64.7,2.14.9v-11h4.47v30.81c0,.75,0,1.54.05,2.36h-4.37Zm0-15.07a12.36,12.36,0,0,0-1.84-1.07,8.89,8.89,0,0,0-3.83-.67,7.42,7.42,0,0,0-3,.6,7.18,7.18,0,0,0-2.39,1.69,7.66,7.66,0,0,0-1.59,2.68,10.65,10.65,0,0,0-.57,3.59,11.55,11.55,0,0,0,.4,3.1,7.24,7.24,0,0,0,1.22,2.56,5.58,5.58,0,0,0,2.09,1.72,6.78,6.78,0,0,0,3,.62,6.44,6.44,0,0,0,3-.64,6.16,6.16,0,0,0,2-1.62,6.63,6.63,0,0,0,1.15-2.14,7.42,7.42,0,0,0,.37-2.16Z"/><path class="cls-1" d="M325,274.37a13.69,13.69,0,0,1-1.19,1.15,10.35,10.35,0,0,1-2.06,1.34,16.3,16.3,0,0,1-3,1.12,14.89,14.89,0,0,1-3.9.47,13.25,13.25,0,0,1-4.92-.89,10.92,10.92,0,0,1-3.83-2.54,11.31,11.31,0,0,1-2.46-3.93,14.12,14.12,0,0,1-.87-5.07,13.26,13.26,0,0,1,.84-4.75,11.24,11.24,0,0,1,2.39-3.83,11.4,11.4,0,0,1,3.65-2.56,11.27,11.27,0,0,1,4.65-.95,10.72,10.72,0,0,1,5.12,1.15,10.11,10.11,0,0,1,3.51,3,13.17,13.17,0,0,1,2,4.33,19.68,19.68,0,0,1,.64,5.07H307.3a7,7,0,0,0,.67,2.83,7.14,7.14,0,0,0,1.67,2.24,7.83,7.83,0,0,0,2.39,1.49,7.32,7.32,0,0,0,2.83.55,10.33,10.33,0,0,0,4.82-1,10.16,10.16,0,0,0,2.74-1.94Zm-4-10.19A7.59,7.59,0,0,0,319,259.6a6.08,6.08,0,0,0-4.78-1.89,7.26,7.26,0,0,0-2.86.55,7.16,7.16,0,0,0-2.16,1.44,6.45,6.45,0,0,0-1.39,2.07,6.77,6.77,0,0,0-.55,2.41Z"/><path class="cls-1" d="M326.75,254.63h5.12l7.21,18.05,7.16-18.05h4.82l-9.89,23.12h-4.48Z"/><path class="cls-1" d="M355.24,271.94a9.43,9.43,0,0,0,3,2,10.31,10.31,0,0,0,4,.74A8.55,8.55,0,0,0,366,274a2.36,2.36,0,0,0,1.49-2.26,2.7,2.7,0,0,0-.32-1.37,2.85,2.85,0,0,0-1.09-1,9.67,9.67,0,0,0-2-.82c-.85-.25-1.9-.52-3.16-.82a18.42,18.42,0,0,1-2.66-.8,8.85,8.85,0,0,1-2.36-1.31,6.47,6.47,0,0,1-1.69-2,5.75,5.75,0,0,1-.65-2.81,5.6,5.6,0,0,1,.77-3,6.77,6.77,0,0,1,2.06-2.14,10.14,10.14,0,0,1,2.91-1.32,12.5,12.5,0,0,1,3.36-.45,14.6,14.6,0,0,1,5,.78,11.45,11.45,0,0,1,3.7,2.16l-2.43,3.08a9,9,0,0,0-2.61-1.59,9.6,9.6,0,0,0-3.66-.65,7.27,7.27,0,0,0-3.43.7,2.4,2.4,0,0,0-1.29,2.29,2.36,2.36,0,0,0,1.71,2.21,29,29,0,0,0,4.5,1.37,25.73,25.73,0,0,1,3.06.92,9.39,9.39,0,0,1,2.49,1.34,6.18,6.18,0,0,1,1.69,2,6.26,6.26,0,0,1,.62,2.89,5.82,5.82,0,0,1-.8,3.06,7,7,0,0,1-2.13,2.21A10,10,0,0,1,366,278a14.44,14.44,0,0,1-3.63.45c-4.37,0-7.66-1.18-9.84-3.53Z"/><path class="cls-1" d="M262.44,72a42.72,42.72,0,0,0-30.33,12.56l-50.56,50.55L171.44,125a14.3,14.3,0,1,1,20.22-20.22l20.23-20.22a42.9,42.9,0,0,0-60.67,60.66l30.33,30.33,99.38-99.38A42.68,42.68,0,0,0,262.44,72Z"/><path class="cls-1" d="M301.15,96.4l-38.71,38.72L252.33,125l-20.22,20.22,10.11,10.11-40.44,40.44L222,216l70.77-70.77A42.92,42.92,0,0,0,301.15,96.4Z"/></svg>